<svg width="48" height="47" viewBox="0 0 48 47" fill="none" xmlns="http://www.w3.org/2000/svg">
<path d="M43.2351 14.5524C43.055 14.2921 42.8144 14.0793 42.5341 13.9323C42.2537 13.7853 41.9419 13.7084 41.6253 13.7083H14.8608L12.6009 8.28374C12.3054 7.56877 11.8039 6.9579 11.1601 6.52894C10.5163 6.09998 9.75939 5.87233 8.98578 5.87499H4.41699V9.79166H8.98578L18.2761 32.0873C18.4249 32.444 18.676 32.7487 18.9976 32.963C19.3193 33.1773 19.6971 33.2917 20.0837 33.2917H35.7503C36.567 33.2917 37.2974 32.7844 37.5853 32.0227L43.4603 16.356C43.5713 16.0595 43.6088 15.7406 43.5696 15.4265C43.5304 15.1123 43.4156 14.8124 43.2351 14.5524ZM34.3932 29.375H21.3899L16.494 17.625H38.7994L34.3932 29.375Z" fill="#8E8E93"/>
<path d="M21.0625 41.125C22.6848 41.125 24 39.8098 24 38.1875C24 36.5652 22.6848 35.25 21.0625 35.25C19.4402 35.25 18.125 36.5652 18.125 38.1875C18.125 39.8098 19.4402 41.125 21.0625 41.125Z" fill="#8E8E93"/>
<path d="M34.7705 41.125C36.3928 41.125 37.708 39.8098 37.708 38.1875C37.708 36.5652 36.3928 35.25 34.7705 35.25C33.1482 35.25 31.833 36.5652 31.833 38.1875C31.833 39.8098 33.1482 41.125 34.7705 41.125Z" fill="#8E8E93"/>
</svg>
