<svg width="48" height="47" viewBox="0 0 48 47" fill="none" xmlns="http://www.w3.org/2000/svg">
<path d="M15.1875 13.2188H41.625M15.1875 23.5H41.625M15.1875 33.7812H41.625" stroke="#8E8E93" stroke-width="3.5" stroke-linecap="round" stroke-linejoin="round"/>
<path d="M7.84375 14.6875C8.65492 14.6875 9.3125 14.0299 9.3125 13.2188C9.3125 12.4076 8.65492 11.75 7.84375 11.75C7.03258 11.75 6.375 12.4076 6.375 13.2188C6.375 14.0299 7.03258 14.6875 7.84375 14.6875Z" stroke="#8E8E93" stroke-width="1.5" stroke-linecap="round" stroke-linejoin="round"/>
<path d="M7.84375 24.9688C8.65492 24.9688 9.3125 24.3112 9.3125 23.5C9.3125 22.6888 8.65492 22.0312 7.84375 22.0312C7.03258 22.0312 6.375 22.6888 6.375 23.5C6.375 24.3112 7.03258 24.9688 7.84375 24.9688Z" stroke="#8E8E93" stroke-width="1.5" stroke-linecap="round" stroke-linejoin="round"/>
<path d="M7.84375 35.25C8.65492 35.25 9.3125 34.5924 9.3125 33.7812C9.3125 32.9701 8.65492 32.3125 7.84375 32.3125C7.03258 32.3125 6.375 32.9701 6.375 33.7812C6.375 34.5924 7.03258 35.25 7.84375 35.25Z" stroke="#8E8E93" stroke-width="1.5" stroke-linecap="round" stroke-linejoin="round"/>
</svg>
