<svg width="48" height="47" viewBox="0 0 48 47" fill="none" xmlns="http://www.w3.org/2000/svg">
<path d="M24 41.125C19.8875 41.125 16.2483 39.8769 13.0823 37.3807C9.91632 34.8844 7.86007 31.6937 6.91354 27.8083C6.78299 27.3188 6.8809 26.8703 7.20729 26.463C7.53368 26.0556 7.97431 25.8187 8.52917 25.7521C9.05139 25.6868 9.52465 25.7847 9.94896 26.0458C10.3733 26.3069 10.667 26.6986 10.8302 27.2208C11.6135 30.1583 13.2292 32.5573 15.6771 34.4177C18.125 36.2781 20.8993 37.2083 24 37.2083C27.8188 37.2083 31.0585 35.8786 33.7192 33.2192C36.3799 30.5598 37.7096 27.3201 37.7083 23.5C37.707 19.6799 36.3773 16.4409 33.7192 13.7828C31.0611 11.1246 27.8214 9.79428 24 9.79167C21.7479 9.79167 19.6427 10.3139 17.6844 11.3583C15.726 12.4028 14.0778 13.8389 12.7396 15.6667H16.1667C16.7215 15.6667 17.187 15.8547 17.563 16.2307C17.939 16.6067 18.1263 17.0714 18.125 17.625C18.1237 18.1786 17.9357 18.644 17.561 19.0213C17.1863 19.3986 16.7215 19.5859 16.1667 19.5833H8.33333C7.77847 19.5833 7.31369 19.3953 6.939 19.0193C6.56431 18.6433 6.37631 18.1786 6.375 17.625V9.79167C6.375 9.23681 6.563 8.77203 6.939 8.39733C7.315 8.02264 7.77978 7.83464 8.33333 7.83333C8.88689 7.83203 9.35232 8.02003 9.72962 8.39733C10.1069 8.77464 10.2943 9.23942 10.2917 9.79167V12.4354C11.9563 10.3465 13.9883 8.7309 16.388 7.58854C18.7876 6.44618 21.3249 5.875 24 5.875C26.4479 5.875 28.7411 6.34043 30.8796 7.27129C33.0181 8.20215 34.8785 9.4581 36.4609 11.0391C38.0432 12.6202 39.2998 14.4806 40.2307 16.6204C41.1615 18.7602 41.6263 21.0534 41.625 23.5C41.6237 25.9466 41.1589 28.2398 40.2307 30.3796C39.3024 32.5194 38.0458 34.3799 36.4609 35.9609C34.8759 37.5419 33.0155 38.7985 30.8796 39.7307C28.7437 40.6628 26.4505 41.1276 24 41.125ZM25.9583 22.7167L30.8542 27.6125C31.2132 27.9715 31.3927 28.4285 31.3927 28.9833C31.3927 29.5382 31.2132 29.9951 30.8542 30.3542C30.4951 30.7132 30.0382 30.8927 29.4833 30.8927C28.9285 30.8927 28.4715 30.7132 28.1125 30.3542L22.6292 24.8708C22.4333 24.675 22.2865 24.455 22.1885 24.2109C22.0906 23.9667 22.0417 23.7135 22.0417 23.451V15.6667C22.0417 15.1118 22.2297 14.647 22.6057 14.2723C22.9817 13.8976 23.4464 13.7096 24 13.7083C24.5536 13.707 25.019 13.895 25.3963 14.2723C25.7736 14.6496 25.9609 15.1144 25.9583 15.6667V22.7167Z" fill="#8E8E93"/>
</svg>
