<svg width="24" height="24" viewBox="0 0 24 24" fill="none" xmlns="http://www.w3.org/2000/svg">
<path d="M20.5932 11.5379H8.75297M4.57368 11.5379H2.86401M4.57368 11.5379C4.57368 10.9839 4.79379 10.4525 5.18558 10.0607C5.57738 9.66888 6.10877 9.44877 6.66285 9.44877C7.21693 9.44877 7.74832 9.66888 8.14011 10.0607C8.53191 10.4525 8.75201 10.9839 8.75201 11.5379C8.75201 12.092 8.53191 12.6234 8.14011 13.0152C7.74832 13.407 7.21693 13.6271 6.66285 13.6271C6.10877 13.6271 5.57738 13.407 5.18558 13.0152C4.79379 12.6234 4.57368 12.092 4.57368 11.5379ZM20.5932 17.8696H15.0847M15.0847 17.8696C15.0847 18.4239 14.864 18.9558 14.4722 19.3477C14.0803 19.7396 13.5488 19.9598 12.9946 19.9598C12.4405 19.9598 11.9091 19.7387 11.5173 19.3469C11.1255 18.9551 10.9054 18.4237 10.9054 17.8696M15.0847 17.8696C15.0847 17.3154 14.864 16.7844 14.4722 16.3925C14.0803 16.0006 13.5488 15.7805 12.9946 15.7805C12.4405 15.7805 11.9091 16.0006 11.5173 16.3924C11.1255 16.7842 10.9054 17.3156 10.9054 17.8696M10.9054 17.8696H2.86401M20.5932 5.20623H17.6176M13.4383 5.20623H2.86401M13.4383 5.20623C13.4383 4.65215 13.6584 4.12076 14.0502 3.72897C14.442 3.33717 14.9733 3.11707 15.5274 3.11707C15.8018 3.11707 16.0735 3.1711 16.3269 3.27609C16.5804 3.38108 16.8107 3.53497 17.0047 3.72897C17.1987 3.92297 17.3526 4.15327 17.4576 4.40674C17.5626 4.66021 17.6166 4.93188 17.6166 5.20623C17.6166 5.48059 17.5626 5.75225 17.4576 6.00572C17.3526 6.25919 17.1987 6.4895 17.0047 6.6835C16.8107 6.87749 16.5804 7.03138 16.3269 7.13637C16.0735 7.24136 15.8018 7.2954 15.5274 7.2954C14.9733 7.2954 14.442 7.07529 14.0502 6.6835C13.6584 6.2917 13.4383 5.76031 13.4383 5.20623Z" stroke="black" stroke-width="1.5" stroke-miterlimit="10" stroke-linecap="round"/>
</svg>
