<svg width="25" height="25" viewBox="0 0 25 25" fill="none" xmlns="http://www.w3.org/2000/svg">
<path d="M9.94668 21.6146C10.9253 21.6146 11.7186 20.8214 11.7186 19.8428C11.7186 18.8642 10.9253 18.0709 9.94668 18.0709C8.9681 18.0709 8.1748 18.8642 8.1748 19.8428C8.1748 20.8214 8.9681 21.6146 9.94668 21.6146Z" stroke="black" stroke-width="1.5625" stroke-linecap="round" stroke-linejoin="round"/>
<path d="M17.6664 21.6146C18.645 21.6146 19.4383 20.8214 19.4383 19.8428C19.4383 18.8642 18.645 18.0709 17.6664 18.0709C16.6878 18.0709 15.8945 18.8642 15.8945 19.8428C15.8945 20.8214 16.6878 21.6146 17.6664 21.6146Z" stroke="black" stroke-width="1.5625" stroke-linecap="round" stroke-linejoin="round"/>
<path d="M5.83942 5.78646L7.93317 12.4156C8.25505 13.4344 8.41546 13.9437 8.72484 14.3208C8.99567 14.6542 9.3488 14.9115 9.74775 15.0708C10.2009 15.251 10.7342 15.251 11.803 15.251H15.8186C16.8873 15.251 17.4207 15.251 17.8728 15.0708C18.2728 14.9115 18.6248 14.6542 18.8967 14.3208C19.205 13.9437 19.3655 13.4344 19.6884 12.4156L20.1144 11.0656L20.3644 10.2677L20.7092 9.17396C20.8323 8.78385 20.8617 8.37025 20.7951 7.96666C20.7285 7.56307 20.5678 7.18085 20.3259 6.85095C20.0841 6.52105 19.7679 6.25277 19.4031 6.06783C19.0382 5.88289 18.6349 5.78649 18.2259 5.78646H5.83942ZM5.83942 5.78646L5.82796 5.74792C5.78398 5.60058 5.73534 5.45468 5.68213 5.31042C5.47124 4.7766 5.11362 4.31336 4.65059 3.97419C4.18756 3.63503 3.63802 3.4338 3.06546 3.39375C2.95817 3.38542 2.84046 3.38542 2.604 3.38542" stroke="black" stroke-width="1.5625" stroke-linecap="round" stroke-linejoin="round"/>
</svg>
