<svg width="48" height="47" viewBox="0 0 48 47" fill="none" xmlns="http://www.w3.org/2000/svg">
<path d="M39.5353 25.5386C39.1655 28.3585 38.035 31.0246 36.2652 33.2508C34.4954 35.4771 32.1529 37.1796 29.489 38.1758C26.8251 39.1719 23.9403 39.4241 21.1439 38.9053C18.3476 38.3866 15.7452 37.1164 13.6159 35.231C11.4866 33.3456 9.91063 30.9162 9.05711 28.2032C8.20359 25.4902 8.10467 22.5961 8.77096 19.8312C9.43726 17.0663 10.8436 14.5349 12.8392 12.5085C14.8349 10.4822 17.3444 9.03725 20.0988 8.32875C27.7344 6.37042 35.6382 10.3008 38.5561 17.625" stroke="#8E8E93" stroke-width="3.5" stroke-linecap="round" stroke-linejoin="round"/>
<path d="M39.6667 7.83333V17.625H29.875" stroke="#8E8E93" stroke-width="3.91667" stroke-linecap="round" stroke-linejoin="round"/>
</svg>
